#N canvas 1440 60 1920 1020 10;
#X obj 711 382 netreceive -u -b 13003;
#X obj 711 417 unpackOSC;
#X obj 711 582 phasor~;
#X obj 711 453 routeOSC /controller;
#X floatatom 711 538 5 0 0 0 - - -, f 5;
#X obj 783 674 dac~, f 5;
#X obj 783 621 *~;
#X floatatom 784 538 5 0 0 0 - - -, f 5;
#X obj 711 492 unpack f f;
#X connect 0 0 1 0;
#X connect 1 0 3 0;
#X connect 2 0 6 0;
#X connect 3 0 8 0;
#X connect 4 0 2 0;
#X connect 6 0 5 0;
#X connect 7 0 6 1;
#X connect 8 0 4 0;
#X connect 8 1 7 0;
